<svg width="180" height="40" viewBox="0 0 180 40" fill="none" xmlns="http://www.w3.org/2000/svg">
  <!-- Algolia mark -->
  <g transform="translate(4, 4) scale(0.55)">
    <path d="M29.0456 0H28.9544C12.9689 0 0 12.9689 0 28.9544V29.0456C0 45.0311 12.9689 58 28.9544 58H29.0456C45.0311 58 58 45.0311 58 29.0456V28.9544C58 12.9689 45.0311 0 29.0456 0Z" fill="#003DFF"/>
    <path d="M40.056 18.837V38.4999C40.056 39.3259 39.3854 39.9965 38.5594 39.9965H34.2234C33.3974 39.9965 32.7268 39.3259 32.7268 38.4999V36.948C30.0612 39.2036 26.6392 40.5532 22.8734 40.5532C14.5378 40.5532 7.72656 33.742 7.72656 25.4064C7.72656 17.0708 14.5378 10.2596 22.8734 10.2596C31.209 10.2596 38.0202 17.0708 38.0202 25.4064V25.5288C38.0202 25.5677 38.0124 25.6027 38.0124 25.6416H38.0202V18.837C38.0202 18.011 38.6908 17.3404 39.5168 17.3404H38.5594H39.5168C40.3856 17.3404 40.056 18.011 40.056 18.837ZM22.8734 33.3398C27.2483 33.3398 30.8238 29.7643 30.8238 25.3894C30.8238 21.0145 27.2483 17.439 22.8734 17.439C18.4985 17.439 14.923 21.0145 14.923 25.3894C14.923 29.7643 18.4985 33.3398 22.8734 33.3398Z" fill="white"/>
    <path d="M47.0547 7.86719H43.4403C42.5365 7.86719 41.8047 8.59895 41.8047 9.50283V13.1172C41.8047 14.0211 42.5365 14.7529 43.4403 14.7529H47.0547C47.9586 14.7529 48.6904 14.0211 48.6904 13.1172V9.50283C48.6904 8.59895 47.9586 7.86719 47.0547 7.86719Z" fill="white"/>
  </g>
  <!-- Text -->
  <text x="46" y="27" font-family="system-ui, -apple-system, sans-serif" font-size="17" font-weight="700" fill="currentColor">Demo Store</text>
</svg>
