<svg version="1.2" xmlns="http://www.w3.org/2000/svg" viewBox="0 0 1545 354" width="1545" height="354">
	<title>Algolia-logo-blue-svg</title>
	<style>
		.s0 { fill: #003dff } 
	</style>
	<path id="Layer" fill-rule="evenodd" class="s0" d="m752.7 194.8v-189.6c0-2.6-2.3-4.5-4.8-4.1l-35.5 5.5c-2 0.4-3.5 2.1-3.5 4.2l0.2 192.3c0 9.1 0 65.3 67.4 67.2 2.4 0.1 4.3-1.8 4.3-4.1v-28.7c0-2.1-1.5-3.9-3.6-4.2-24.5-2.8-24.5-33.4-24.5-38.5z"/>
	<path id="Layer" class="s0" d="m1298.1 78.7c0-2.2 1.8-4 4-4h36c2.2 0 4 1.8 4 4v187.7c0 2.2-1.8 4-4 4h-36c-2.2 0-4-1.8-4-4z"/>
	<path id="Layer" fill-rule="evenodd" class="s0" d="m1302.2 51.3h35.7c2.3 0 4.2-1.9 4.2-4.2v-41.9c0-2.6-2.3-4.5-4.8-4.2l-35.7 5.6c-2 0.4-3.5 2.1-3.5 4.2v36.3c0 2.3 1.8 4.1 4.1 4.1z"/>
	<path id="Layer" fill-rule="evenodd" class="s0" d="m1240.5 194.8v-189.6c0-2.6-2.3-4.5-4.8-4.1l-35.5 5.5c-2 0.4-3.5 2.1-3.5 4.2l0.2 192.3c0 9.1 0 65.3 67.4 67.2 2.4 0.1 4.3-1.8 4.3-4.1v-28.7c0-2.1-1.5-3.9-3.6-4.2-24.5-2.8-24.5-33.4-24.5-38.5z"/>
	<path id="Layer" fill-rule="evenodd" class="s0" d="m1147.6 101.5c8 8.6 14.1 18.9 18.6 31 4.7 12.1 7.1 26.3 7.1 41.1 0 14.7-2.2 25.9-6.5 38.1q-6.6 18.3-18.5 31.3c-8 8.6-17.5 15.3-28.7 20-11.2 4.7-28.4 7.4-37 7.4-8.7-0.1-25.8-2.6-36.9-7.4-11.1-4.8-20.6-11.4-28.5-20-8-8.7-14.1-19.1-18.6-31.3-4.5-12.2-6.7-23.4-6.7-38.1 0-14.8 2-29 6.4-41.1 4.5-12.1 10.8-22.4 18.9-31 8-8.7 17.7-15.3 28.6-20 11.1-4.7 23.3-6.9 36.5-6.9 13.3 0 25.5 2.3 36.7 6.9 11.2 4.7 20.8 11.4 28.6 20zm-31.2 115.3c8.1-11.2 12.1-24 12.1-43.1 0-19-4.2-34.7-12.2-45.7-8.1-11.1-19.4-16.6-33.8-16.6-14.5 0-25.8 5.5-33.8 16.6-8.1 11.1-12 26.7-12 45.7 0 19.1 4 32 12.1 43.1 8 11.1 19.3 16.6 33.8 16.6 14.4 0 25.7-5.6 33.8-16.6z"/>
	<path id="Layer" fill-rule="evenodd" class="s0" d="m668.6 74.7c2.3 0 4.1 1.9 4.1 4.2v185c0 2.2-1.8 4.1-4.1 4.1h-35.5c-2.3 0-4.1-1.9-4.1-4.1v-40.8c-6.6 22.6-26.7 40.7-49.9 44.3q-0.2 0-0.4 0-1 0.2-1.9 0.3-0.4 0-0.8 0.1-0.9 0-1.8 0.1-0.4 0-0.7 0-1.3 0.1-2.6 0.1c-11.6 0-22.3-3.5-31.3-9.5q-3.5-2.3-6.6-5c-22.1-18.4-36.3-46.6-36.3-78.2 0-20.5 6-39.5 16.2-55.4 17.5-27.2 47.4-45.2 81.4-45.2zm-39.6 45.1h-34.7c-22.7 0-42.1 14.6-50 35.1-2.4 6.3-3.8 13.2-3.8 20.4 0 30.6 24.5 55.8 54.2 55.8q1.2 0 2.4 0 0.2 0 0.4-0.1c11.8-0.8 22.9-3.4 31.5-10.6z"/>
	<path id="Layer" fill-rule="evenodd" class="s0" d="m1540.3 74.7c2.3 0 4.1 1.9 4.1 4.2v185c0 2.2-1.8 4.1-4.1 4.1h-35.5c-2.3 0-4.1-1.9-4.1-4.1v-40.8c-6.6 22.6-26.8 40.7-49.9 44.3q-0.2 0-0.4 0-1 0.2-1.9 0.3-0.4 0-0.8 0.1-0.9 0-1.8 0.1-0.4 0-0.8 0-1.2 0.1-2.5 0.1c-11.6 0-22.3-3.5-31.4-9.5q-3.4-2.3-6.5-5c-22.1-18.4-36.3-46.6-36.3-78.2 0-20.5 6-39.5 16.2-55.4 17.5-27.2 47.4-45.2 81.4-45.2zm-39.6 45.1h-34.7c-22.7 0-42.1 14.6-50 35.1-2.4 6.3-3.8 13.2-3.8 20.4 0 30.6 24.5 55.8 54.2 55.8q1.2 0 2.4 0 0.2 0 0.3-0.1c11.9-0.8 23-3.4 31.6-10.6z"/>
	<path id="Layer" fill-rule="evenodd" class="s0" d="m963.7 74.7c2.3 0 4.1 1.9 4.1 4.2v189.1c-1.4 27.9-9.6 48.7-24.7 62.3-16.7 15.1-42.2 22.7-76.6 22.7-8.5 0-23.3-1.1-38.4-3.3-2.5-0.3-4.1-2.8-3.4-5.3l9-30.3c0.5-1.9 2.4-3.2 4.4-3 12.5 1.3 24.9 1.7 32.7 1.7q28.7 0 41-11.7c8.2-7.8 12.2-19.4 12.2-34.8v-7.8h0.1v-35.3c-4 13.5-12.8 25.4-24.3 33.6-9.5 7-21.2 11.2-33.8 11.2-11.6 0-22.3-3.5-31.3-9.5q-3.5-2.3-6.6-5c-19.3-16.1-32.6-39.7-35.6-66.5-0.5-3.9-0.7-7.9-0.7-11.7q0-5.8 0.6-11.4c1.8-16.1 7.3-31.1 15.6-44 17.5-27.2 47.4-45.2 81.4-45.2h34.7c0 0 39.6 0 39.6 0zm-74.3 45.2c-22.7 0-42.1 14.5-50 35-2.4 6.3-3.8 13.2-3.8 20.4 0 29.6 24 54.4 52.4 55.9q1.4 0 2.8 0 1.2 0 2.4 0 0.1-0.1 0.3-0.1c11.5-0.8 22.1-3.4 30.6-10.3 0.4-3 0-100.9 0-100.9 0 0-34.7 0-34.7 0z"/>
	<path id="Layer" class="s0" d="m175.7 1c-96 0-174.3 77.5-175.7 173.3-1.4 97.3 77.5 177.9 174.7 178.5 30 0.1 58.9-7.2 84.6-21.2 2.5-1.3 2.8-4.8 0.7-6.7l-16.4-14.6c-3.4-2.9-8.1-3.8-12.2-2-18 7.6-37.4 11.5-57.5 11.3-78.5-1-142-66.4-140.7-145 1.2-77.7 64.7-140.4 142.5-140.4h142.5v253.6l-80.8-71.9c-2.7-2.3-6.7-1.9-8.8 0.9-13 17.2-34.1 27.9-57.6 26.3-32.6-2.3-59-28.5-61.4-61.1-2.9-38.9 27.9-71.5 66.1-71.5 34.6 0 63.1 26.7 66 60.5 0.3 3 1.7 5.8 3.9 7.8l21.1 18.7c2.4 2.2 6.2 0.9 6.7-2.3 1.6-8.1 2.1-16.6 1.5-25.3-3.4-49.5-43.5-89.3-92.9-92.4-56.8-3.5-104.2 40.9-105.7 96.6-1.5 54.3 42.9 101.1 97.2 102.3 22.6 0.5 43.6-6.6 60.5-19l105.7 93.8c4.5 4 11.7 0.8 11.7-5.3v-338.2c0-3.7-3-6.7-6.7-6.7z"/>
</svg>