<svg version="1.2" xmlns="http://www.w3.org/2000/svg" viewBox="0 0 1350 1352" width="1350" height="1352">
	<title>Algolia-logo-blue-svg</title>
	<style>
		.s0 { fill: #003dff } 
	</style>
	<path id="Layer" class="s0" d="m674.8 0c-368.8 0-669.4 297.7-674.7 665.6-5.4 373.7 297.4 683.3 670.7 685.5 115.3 0.7 226.4-27.6 325-81.2 9.6-5.2 11.1-18.5 2.9-25.7l-63.2-56.1c-12.8-11.3-31.1-14.6-46.9-7.9-68.8 29.4-143.6 44.3-220.7 43.4-301.6-3.7-545.3-255-540.5-556.9 4.7-298.2 248.5-539.2 547.4-539.2h547.5v974.1l-310.6-276.3c-10.1-8.9-25.5-7.2-33.6 3.6-49.9 66.1-131.1 107.2-221.3 101-125.1-8.7-226.5-109.6-235.9-234.8-11.2-149.4 107-274.5 253.9-274.5 132.8 0 242.2 102.4 253.7 232.4 1 11.6 6.2 22.4 14.9 30.1l80.9 71.8c9.1 8.1 23.7 3.1 26-8.9 5.8-31.3 7.9-63.8 5.6-97.2-13.1-190.2-167-343.2-357-354.9-218-13.4-400.1 157.2-405.9 371.1-5.7 208.5 165 388.2 373.2 392.8 87 1.9 167.6-25.4 232.7-72.9l405.9 360.2c17.4 15.4 44.8 3.1 44.8-20.2v-1299.3c0-14.1-11.4-25.6-25.6-25.6z"/>
</svg>