<svg width="170" height="40" viewBox="0 0 170 40" fill="none" xmlns="http://www.w3.org/2000/svg">
<path d="M60.6989 6.47978C60.6989 6.38752 60.7681 6.3055 60.8578 6.3055C60.95 6.3055 61.0193 6.38752 61.0193 6.47978L62.1059 11.5798C62.1059 11.5798 62.1828 11.9078 61.8368 11.9078H59.8814C59.538 11.9078 59.6149 11.5798 59.6149 11.5798L60.6989 6.47978ZM64.6431 1.26703C64.6431 1.26703 64.4457 0.557129 63.6974 0.557129H57.9285C57.193 0.557129 57.0008 1.29522 57.0008 1.29522L51.3011 17.6895C51.3011 17.6895 51.0987 18.3507 51.8034 18.3507H57.2058C57.9285 18.3507 58.0797 17.6562 58.0797 17.6562L58.3412 16.5003C58.3412 16.5003 58.4232 16.1339 58.7819 16.1339H62.9542C63.3104 16.1339 63.418 16.5209 63.418 16.5209L63.7102 17.6459C63.7102 17.6459 63.8896 18.3507 64.6072 18.3507H70.0301C70.7554 18.3507 70.4914 17.6562 70.4914 17.6562L64.6431 1.26703Z" fill="#1D1D1B"/>
<path d="M26.5931 8.08409V5.76732C26.5931 5.41109 26.9647 5.41621 26.9647 5.41621H27.0928C28.2025 5.41621 29.1687 5.58023 29.1687 6.94877C29.1687 8.31731 28.1051 8.43776 27.0467 8.43776C26.9493 8.43776 26.5931 8.43776 26.5931 8.08409ZM33.1308 12.5664C32.7771 12.0462 32.3773 11.7643 32.0467 11.5029V11.3619C34.4481 10.5598 35.486 9.427 35.486 6.73862C35.486 2.25371 32.0929 0.557129 28.0846 0.557129H20.9703C20.2629 0.557129 20.2578 1.25678 20.2578 1.25678L20.2809 17.6587C20.2809 17.6587 20.3065 18.3507 21.019 18.3507H25.8627C25.8627 18.3507 26.5879 18.3507 26.5879 17.6382V12.9944C26.5905 12.9099 26.6495 12.8407 26.734 12.8407C26.8007 12.8407 26.8648 12.8894 26.8853 12.9509L29.1944 17.6511C29.1944 17.6511 29.5326 18.3533 30.2502 18.3533H36.2779C36.9878 18.3533 36.5265 17.6408 36.5265 17.6408L33.1282 12.5716L33.1308 12.5664Z" fill="#1D1D1B"/>
<path d="M50.0453 7.41C50.1812 7.48175 50.3529 7.4305 50.4272 7.29211C50.4554 7.23316 50.4554 7.18704 50.4426 7.12041C50.4041 5.91332 50.2812 1.636 50.2735 1.3874C50.2607 1.06449 49.9249 0.885092 49.9249 0.885092C48.6537 0.487857 47.2647 0.27002 45.9269 0.27002C40.7167 0.27002 36.6393 4.42433 36.6393 9.61401C36.6393 14.8037 40.6014 18.63 45.6655 18.63C46.7034 18.63 48.7588 18.4557 49.9121 18.061C49.9121 18.061 50.2708 17.938 50.2837 17.5715C50.2965 17.2486 50.4041 13.1661 50.4323 11.9487C50.4349 11.9359 50.4221 11.9154 50.4221 11.9026C50.4221 11.7463 50.2965 11.6207 50.1428 11.6207C50.0736 11.6207 50.0197 11.6796 49.9736 11.7232C49.0561 12.4741 48.0054 12.9226 46.7522 12.9226C44.8198 12.9226 43.1463 11.4105 43.1463 9.45255C43.1463 7.49457 44.725 5.98252 46.6573 5.98252C47.9259 5.98252 49.0766 6.60272 50.0351 7.39975L50.0121 7.39462C50.0121 7.39462 50.0325 7.40744 50.0453 7.41513" fill="#1D1D1B"/>
<path d="M9.42475 6.49235C9.42475 6.40009 9.49654 6.31808 9.58368 6.31808C9.67594 6.31808 9.7451 6.40009 9.7451 6.49235L10.8317 11.5923C10.8317 11.5923 10.9086 11.9204 10.5626 11.9204H8.60723C8.26382 11.9204 8.34069 11.5923 8.34069 11.5923L9.42475 6.49235ZM13.3689 1.28216C13.3689 1.28216 13.1716 0.572266 12.4232 0.572266H6.65434C5.91882 0.572266 5.72664 1.31036 5.72664 1.31036L0.0269606 17.7046C0.0269606 17.7046 -0.175511 18.3658 0.529261 18.3658H5.92911C6.65182 18.3658 6.80301 17.6713 6.80301 17.6713L7.06442 16.5155C7.06442 16.5155 7.14642 16.149 7.50521 16.149H11.6775C12.0337 16.149 12.1414 16.536 12.1414 16.536L12.4335 17.6611C12.4335 17.6611 12.6129 18.3658 13.3305 18.3658H18.7534C19.4787 18.3658 19.2147 17.6713 19.2147 17.6713L13.3664 1.28216H13.3689Z" fill="#1D1D1B"/>
<path d="M80.5786 6.88702C80.5786 8.32732 79.3509 8.51441 78.2207 8.51441H77.9645C77.9645 8.51441 77.5929 8.56309 77.5929 8.18124V5.77476C77.5929 5.41597 77.944 5.42365 77.944 5.42365H78.1952C79.2587 5.42365 80.5786 5.49285 80.5786 6.88702ZM79.5381 0.562012H72.0751C71.3601 0.562012 71.3601 1.2796 71.3601 1.2796V17.6636C71.3601 17.6636 71.4011 18.3556 72.0905 18.3556H76.8778C77.6031 18.3556 77.58 17.6431 77.58 17.6431V13.7092C77.58 13.7092 77.5801 12.9993 78.2925 12.9993H80.881C84.4868 12.9993 86.7472 10.7338 86.7472 7.09973C86.7472 2.68914 83.6821 0.564573 79.5355 0.564573" fill="#1D1D1B"/>
<path d="M166.858 5.69312C166.858 4.92428 166.866 1.81047 166.866 1.28253C166.866 0.580319 166.166 0.564941 166.166 0.564941H154.011C153.293 0.564941 153.283 1.28253 153.283 1.28253C153.283 2.55368 153.288 5.1088 153.288 5.6393C153.288 6.35689 154.021 6.321 154.021 6.321L156.479 6.20825C156.479 6.20825 156.871 6.1493 156.871 6.5286C156.871 6.90789 156.845 17.0053 156.845 17.6563C156.845 18.3867 157.57 18.3559 157.57 18.3559H162.599C163.311 18.3559 163.316 17.6896 163.316 17.6896C163.316 15.2421 163.306 6.85407 163.306 6.55678C163.306 6.21081 163.675 6.20568 163.675 6.20568L166.166 6.321C166.166 6.321 166.858 6.46453 166.858 5.69569" fill="#1D1D1B"/>
<path d="M152.245 14.2424C152.245 14.2424 152.288 13.4915 151.553 13.4915H146.965C146.965 13.4915 146.62 13.5709 146.62 13.1788C146.62 12.9302 146.617 12.4125 146.612 12.0717C146.612 12.0717 146.586 11.7437 146.958 11.7437C147.229 11.7437 150.149 11.7308 150.864 11.7308C151.579 11.7308 151.589 11.021 151.589 11.021L151.584 7.83537C151.584 7.83537 151.599 7.11779 150.874 7.11779H146.948C146.568 7.11779 146.614 6.82051 146.614 6.82051V5.79282C146.614 5.79282 146.637 5.41865 146.981 5.41865H151.345C152.06 5.41865 152.06 4.70876 152.06 4.70876V1.26947C152.06 1.26947 152.14 0.55957 151.379 0.55957H140.812C140.087 0.55957 140.1 1.26947 140.1 1.26947C140.1 4.45503 140.107 17.0179 140.107 17.6714C140.107 18.4172 140.799 18.3762 140.799 18.3762C140.799 18.3762 150.825 18.3711 151.548 18.3711C152.27 18.3711 152.253 17.6817 152.253 17.6817V14.2398L152.245 14.2424Z" fill="#1D1D1B"/>
<path d="M99.6177 13.3709C99.6177 13.3709 99.6459 12.6431 98.9181 12.6431H94.915C94.2 12.6431 94.1743 11.9614 94.1743 11.9614L94.1974 1.34623C94.1974 1.34623 94.241 0.562012 93.5055 0.562012H88.4849C87.7699 0.562012 87.7468 1.32573 87.7468 1.32573L87.7366 17.6841C87.7366 17.6841 87.7699 18.353 88.5054 18.353H98.9283C99.6664 18.353 99.6382 17.7046 99.6382 17.7046L99.6151 13.3709H99.6177Z" fill="#1D1D1B"/>
<path d="M137.109 0.562132H132.347C131.619 0.562132 131.655 1.27972 131.655 1.27972V5.89534C131.655 7.29207 131.881 8.62729 132.124 10.0086C132.124 10.0035 132.124 9.99582 132.124 9.9907V10.0138C132.142 10.0906 132.124 10.1701 132.045 10.1983C131.955 10.229 131.858 10.1829 131.827 10.0958L126.642 1.29253C126.642 1.29253 126.22 0.562132 125.489 0.562132H120.707C120.707 0.562132 120.025 0.567259 120.025 1.30022C120.025 2.03318 120.012 17.6561 120.012 17.6561C120.012 17.6561 120.018 18.3531 120.717 18.3531H125.482C126.202 18.3531 126.212 17.6561 126.212 17.6561L126.191 12.5714C126.191 11.5053 126.05 10.4802 125.863 9.38331C125.863 9.28593 125.909 9.20391 126.009 9.20391C126.109 9.20391 126.168 9.26286 126.212 9.36025L131.243 17.6356C131.243 17.6356 131.66 18.3531 132.375 18.3531H137.114C137.837 18.3531 137.844 17.6714 137.844 17.6714L137.824 1.27715C137.824 1.27715 137.819 0.55957 137.111 0.55957" fill="#1D1D1B"/>
<path d="M109.536 6.48466C109.536 6.3924 109.602 6.31295 109.694 6.31295C109.787 6.31295 109.853 6.39496 109.853 6.48466L110.94 11.5846C110.94 11.5846 111.014 11.9127 110.671 11.9127H108.721C108.372 11.9127 108.449 11.5846 108.449 11.5846L109.536 6.48466ZM113.477 1.27191C113.477 1.27191 113.285 0.562012 112.537 0.562012H106.765C106.027 0.562012 105.837 1.3001 105.837 1.3001L100.135 17.6944C100.135 17.6944 99.9378 18.3556 100.64 18.3556H106.04C106.765 18.3556 106.916 17.6611 106.916 17.6611L107.178 16.5052C107.178 16.5052 107.257 16.1388 107.619 16.1388H111.791C112.147 16.1388 112.257 16.5257 112.257 16.5257L112.549 17.6508C112.549 17.6508 112.731 18.3556 113.441 18.3556H118.869C119.595 18.3556 119.331 17.6611 119.331 17.6611L113.48 1.27191H113.477Z" fill="#1D1D1B"/>
<path d="M167.242 17.8046C166.135 17.8046 165.277 16.9333 165.277 15.657C165.277 14.3807 166.135 13.5094 167.242 13.5094C168.35 13.5094 169.206 14.3884 169.206 15.657C169.206 16.9256 168.337 17.8046 167.242 17.8046ZM167.242 12.8994C165.723 12.8994 164.485 14.1373 164.485 15.657C164.485 17.1767 165.723 18.4146 167.242 18.4146C168.762 18.4146 170 17.1793 170 15.657C170 14.1347 168.762 12.8994 167.242 12.8994Z" fill="#1D1D1B"/>
<path d="M167.327 15.3752H166.791V14.6166H167.258C167.517 14.6166 167.852 14.655 167.852 14.9702C167.852 15.3213 167.64 15.3752 167.327 15.3752ZM168.511 15.0317C168.511 14.3449 168.068 14.1143 167.289 14.1143H166.135V17.1768H166.791V15.8775H167.104L167.84 17.1768H168.511L167.701 15.8467C168.173 15.8083 168.511 15.5879 168.511 15.0292" fill="#1D1D1B"/>
<path d="M19.0398 26.6843C21.7235 26.6843 23.4027 28.0764 23.4027 30.3296C23.4027 32.5685 21.7235 33.9606 19.0398 33.9606H17.0162V36.7305H14.6912V26.6843H19.0398ZM18.9106 32.0662C20.3314 32.0662 21.049 31.4203 21.049 30.3296C21.049 29.2245 20.3314 28.5787 18.9106 28.5787H17.0162V32.0662H18.9106ZM32.454 32.8986C32.454 33.0708 32.4253 33.3148 32.411 33.5013H26.5698C26.7851 34.4629 27.6031 35.0513 28.78 35.0513C29.598 35.0513 30.1865 34.8073 30.7175 34.305L31.9087 35.5967C31.1911 36.4147 30.1147 36.8453 28.7226 36.8453C26.0532 36.8453 24.3166 35.1661 24.3166 32.8699C24.3166 30.5592 26.0819 28.8944 28.4355 28.8944C30.7031 28.8944 32.454 30.4157 32.454 32.8986ZM28.4499 30.5879C27.4309 30.5879 26.699 31.2051 26.5411 32.1953H30.3443C30.1865 31.2194 29.4545 30.5879 28.4499 30.5879ZM38.3219 34.7786L38.9246 36.3573C38.4654 36.6874 37.7908 36.8453 37.102 36.8453C35.2793 36.8453 34.2173 35.9124 34.2173 34.0754V30.9037H33.0261V29.1815H34.2173V27.3014H36.4561V29.1815H38.3793V30.9037H36.4561V34.0467C36.4561 34.7069 36.8149 35.0657 37.4177 35.0657C37.7478 35.0657 38.0779 34.9652 38.3219 34.7786ZM42.7791 36.8453C41.4731 36.8453 40.1527 36.4865 39.4351 36.0129L40.1814 34.4055C40.8703 34.8504 41.918 35.1518 42.8652 35.1518C43.8985 35.1518 44.286 34.8791 44.286 34.4485C44.286 33.1856 39.6217 34.4772 39.6217 31.3916C39.6217 29.9278 40.9421 28.8944 43.1953 28.8944C44.2573 28.8944 45.4341 29.1384 46.1661 29.569L45.4198 31.162C44.6592 30.7315 43.8985 30.5879 43.1953 30.5879C42.1907 30.5879 41.7601 30.9037 41.7601 31.3055C41.7601 32.6259 46.4244 31.3486 46.4244 34.3911C46.4244 35.8263 45.0897 36.8453 42.7791 36.8453ZM56.3767 26.6843C59.0604 26.6843 60.7396 28.0764 60.7396 30.3296C60.7396 32.5685 59.0604 33.9606 56.3767 33.9606H54.3531V36.7305H52.0281V26.6843H56.3767ZM56.2475 32.0662C57.6683 32.0662 58.3859 31.4203 58.3859 30.3296C58.3859 29.2245 57.6683 28.5787 56.2475 28.5787H54.3531V32.0662H56.2475ZM69.7909 32.8986C69.7909 33.0708 69.7622 33.3148 69.7479 33.5013H63.9067C64.122 34.4629 64.94 35.0513 66.1169 35.0513C66.9349 35.0513 67.5233 34.8073 68.0544 34.305L69.2456 35.5967C68.528 36.4147 67.4516 36.8453 66.0595 36.8453C63.39 36.8453 61.6535 35.1661 61.6535 32.8699C61.6535 30.5592 63.4188 28.8944 65.7724 28.8944C68.04 28.8944 69.7909 30.4157 69.7909 32.8986ZM65.7868 30.5879C64.7678 30.5879 64.0359 31.2051 63.878 32.1953H67.6812C67.5233 31.2194 66.7914 30.5879 65.7868 30.5879ZM74.9555 36.8453C72.5014 36.8453 70.7074 35.1948 70.7074 32.8699C70.7074 30.5449 72.5014 28.8944 74.9555 28.8944C77.4097 28.8944 79.1893 30.5449 79.1893 32.8699C79.1893 35.1948 77.4097 36.8453 74.9555 36.8453ZM74.9555 35.0083C76.0749 35.0083 76.9217 34.2046 76.9217 32.8699C76.9217 31.5351 76.0749 30.7315 74.9555 30.7315C73.8361 30.7315 72.975 31.5351 72.975 32.8699C72.975 34.2046 73.8361 35.0083 74.9555 35.0083ZM85.2496 28.8944C87.4167 28.8944 89.0959 30.4444 89.0959 32.8699C89.0959 35.2953 87.4167 36.8453 85.2496 36.8453C84.2881 36.8453 83.4987 36.5439 82.9246 35.9124V39.5147H80.6858V29.0092H82.8242V29.8991C83.3839 29.2245 84.2163 28.8944 85.2496 28.8944ZM84.8621 35.0083C85.9816 35.0083 86.8283 34.2046 86.8283 32.8699C86.8283 31.5351 85.9816 30.7315 84.8621 30.7315C83.7427 30.7315 82.8959 31.5351 82.8959 32.8699C82.8959 34.2046 83.7427 35.0083 84.8621 35.0083ZM90.5946 36.7305V26.0815H92.8335V36.7305H90.5946ZM102.475 32.8986C102.475 33.0708 102.446 33.3148 102.432 33.5013H96.5905C96.8058 34.4629 97.6238 35.0513 98.8007 35.0513C99.6187 35.0513 100.207 34.8073 100.738 34.305L101.929 35.5967C101.212 36.4147 100.135 36.8453 98.7433 36.8453C96.0738 36.8453 94.3373 35.1661 94.3373 32.8699C94.3373 30.5592 96.1025 28.8944 98.4562 28.8944C100.724 28.8944 102.475 30.4157 102.475 32.8986ZM98.4706 30.5879C97.4516 30.5879 96.7197 31.2051 96.5618 32.1953H100.365C100.207 31.2194 99.4752 30.5879 98.4706 30.5879ZM112.536 26.6843C115.22 26.6843 116.899 28.0764 116.899 30.3296C116.899 32.5685 115.22 33.9606 112.536 33.9606H110.513V36.7305H108.188V26.6843H112.536ZM112.407 32.0662C113.828 32.0662 114.545 31.4203 114.545 30.3296C114.545 29.2245 113.828 28.5787 112.407 28.5787H110.513V32.0662H112.407ZM118.541 36.7305V26.0815H120.78V36.7305H118.541ZM125.972 28.8944C128.326 28.8944 129.689 29.9852 129.689 32.3245V36.7305H127.594V35.7689C127.178 36.4721 126.374 36.8453 125.24 36.8453C123.432 36.8453 122.356 35.8407 122.356 34.506C122.356 33.1425 123.317 32.1953 125.671 32.1953H127.451C127.451 31.2338 126.876 30.674 125.671 30.674C124.853 30.674 124.006 30.9467 123.446 31.3916L122.643 29.8273C123.489 29.2245 124.738 28.8944 125.972 28.8944ZM125.8 35.3384C126.546 35.3384 127.192 34.9939 127.451 34.2907V33.5013H125.915C124.867 33.5013 124.537 33.8888 124.537 34.4055C124.537 34.9652 125.011 35.3384 125.8 35.3384ZM136.409 28.8944C138.231 28.8944 139.609 29.9565 139.609 32.3101V36.7305H137.37V32.6546C137.37 31.406 136.796 30.8319 135.806 30.8319C134.73 30.8319 133.955 31.4921 133.955 32.9129V36.7305H131.716V29.0092H133.854V29.9134C134.457 29.2532 135.361 28.8944 136.409 28.8944ZM149.286 32.8986C149.286 33.0708 149.257 33.3148 149.243 33.5013H143.402C143.617 34.4629 144.435 35.0513 145.612 35.0513C146.43 35.0513 147.018 34.8073 147.549 34.305L148.741 35.5967C148.023 36.4147 146.947 36.8453 145.555 36.8453C142.885 36.8453 141.149 35.1661 141.149 32.8699C141.149 30.5592 142.914 28.8944 145.267 28.8944C147.535 28.8944 149.286 30.4157 149.286 32.8986ZM145.282 30.5879C144.263 30.5879 143.531 31.2051 143.373 32.1953H147.176C147.018 31.2194 146.286 30.5879 145.282 30.5879ZM155.154 34.7786L155.757 36.3573C155.297 36.6874 154.623 36.8453 153.934 36.8453C152.111 36.8453 151.049 35.9124 151.049 34.0754V30.9037H149.858V29.1815H151.049V27.3014H153.288V29.1815H155.211V30.9037H153.288V34.0467C153.288 34.7069 153.647 35.0657 154.25 35.0657C154.58 35.0657 154.91 34.9652 155.154 34.7786Z" fill="#1D1D1B"/>
</svg>
